<?xml version="1.0" standalone="no"?>
<!DOCTYPE svg PUBLIC "-//W3C//DTD SVG 20010904//EN"
 "http://www.w3.org/TR/2001/REC-SVG-20010904/DTD/svg10.dtd">
<svg version="1.0" xmlns="http://www.w3.org/2000/svg"
 width="286.000000pt" height="286.000000pt" viewBox="0 0 286.000000 286.000000"
 preserveAspectRatio="xMidYMid meet">
<metadata>
Created by potrace 1.11, written by Peter Selinger 2001-2013
</metadata>
<g transform="translate(0.000000,286.000000) scale(0.100000,-0.100000)"
fill="#000000" stroke="none">
<path d="M281 2003 c-14 -6 -80 -54 -146 -106 l-119 -94 -1 -107 -1 -106 408
0 408 0 0 -388 0 -388 209 1 210 0 100 98 c54 54 101 94 103 90 2 -4 4 -47 3
-95 0 -49 2 -89 5 -89 3 -1 92 -3 198 -3 l193 -2 85 105 84 106 0 95 0 95 327
0 328 0 5 97 5 97 88 105 c48 58 87 108 87 111 0 3 -243 5 -540 5 -425 0 -540
-3 -541 -12 -1 -20 -1 -181 0 -205 l1 -23 430 0 430 0 0 -67 0 -68 -418 0
-417 0 -5 -200 -5 -200 -140 0 c-77 0 -144 3 -150 7 -6 4 -9 165 -9 455 1 246
2 451 3 456 1 4 264 7 585 7 321 0 586 4 588 9 2 4 41 50 88 101 95 103 107
120 88 121 -7 0 -582 1 -1277 2 -954 2 -1270 -1 -1290 -10z m2469 -60 c-12
-15 -41 -49 -66 -75 l-45 -48 -592 -2 -592 -3 0 -370 0 -369 -110 -107 -110
-108 -3 472 c-1 263 -6 473 -11 476 -5 4 -260 6 -566 5 -538 -1 -557 0 -533
17 13 10 58 45 99 78 l74 60 1238 1 1238 0 -21 -27z m-1560 -627 c0 -424 -1
-454 -17 -458 -10 -2 -81 -3 -158 -3 l-140 0 -3 387 -2 388 -407 2 -407 3 -1
60 c-1 33 0 63 2 68 2 4 258 7 569 7 l564 0 0 -454z m1525 196 l-65 -79 -415
0 -415 0 0 78 0 79 480 0 481 0 -66 -78z m-738 -387 l-2 -90 -62 -77 c-34 -43
-64 -75 -66 -70 -4 6 -2 326 1 327 1 1 31 1 66 0 l64 0 -1 -90z"/>
</g>
</svg>
